<svg width="204" height="69" viewBox="0 0 204 69" fill="none" xmlns="http://www.w3.org/2000/svg">
<g clip-path="url(#clip0_333_924)">
<path d="M0 49.9912C0 42.783 3.04555 36.0499 8.49364 31.5341H9.87956C9.87956 36.0545 15.4189 39.9957 21.788 39.9957C34.157 39.9957 43.5717 25.2852 43.5717 3.75115V0H67.2019V67.2944H44.3103C44.3103 61.8148 41.7253 58.8329 37.6631 58.8329C35.4474 58.8329 33.9702 59.6971 31.2027 62.0998C25.6634 66.9053 21.6968 68.7334 16.9873 68.7334C7.66383 68.7334 0.00434457 61.4256 0.00434457 49.9867L0 49.9912ZM44.306 56.5297V22.9775H42.92C41.9034 44.1269 35.2606 55.1813 23.4433 55.1813V56.5252H44.306V56.5297Z" fill="black"/>
<path d="M100.525 50.2808C100.525 42.4934 104.587 36.0545 112.246 32.3033V30.8599H97.479V67.2944H74.5874V0H100.525V0.0950231C98.4956 3.55658 97.479 7.49777 97.479 12.4978V28.9368C101.819 28.9368 105.234 24.801 105.234 19.611V14.4209C105.234 5.76926 110.773 0 119.08 0H135.051V3.17196C135.051 20.4752 132.005 26.5341 122.034 28.6472C117.143 29.706 114.557 31.5296 114.557 35.1857C114.557 39.6065 118.25 42.5884 124.898 42.5884C132.192 42.5884 135.881 39.0319 135.881 32.3033H137.267V36.5341C137.267 57.2039 130.159 68.7379 117.977 68.7379C108.006 68.7379 100.529 60.9505 100.529 50.2808H100.525Z" fill="black"/>
<path d="M142.337 0H164.859V18.2671C164.859 33.3622 172.336 41.6292 185.996 41.6292C194.763 41.6292 201.132 38.2626 201.132 31.9187C201.132 17.3078 167.627 29.421 167.627 2.3077V0H203.074V67.2944H180.182V43.9323H165.228V54.7966C165.228 59.7967 166.245 63.7379 168.274 67.1994V67.2944H142.337V0Z" fill="black"/>
</g>
<defs>
<clipPath id="clip0_333_924">
<rect width="203.074" height="68.7379" fill="white"/>
</clipPath>
</defs>
</svg>
